<?xml version="1.0" encoding="UTF-8" standalone="no"?>
<svg width="153px" height="39px" viewBox="0 0 153 39" version="1.1" xmlns="http://www.w3.org/2000/svg" xmlns:xlink="http://www.w3.org/1999/xlink">
    <!-- Generator: Sketch 45.2 (43514) - http://www.bohemiancoding.com/sketch -->
    <title>Page 1</title>
    <desc>Created with Sketch.</desc>
    <defs></defs>
    <g id="Page-1" stroke="none" stroke-width="1" fill="none" fill-rule="evenodd">
        <g id="Desktop-Copy" transform="translate(-104.000000, -1628.000000)" fill="#9396A7">
            <g id="Page-1" transform="translate(104.000000, 1628.000000)">
                <path d="M89.0237903,36.5225806 C88.3657258,36.5225806 87.5020161,36.4197581 87.0290323,36.3375 C86.8439516,33.8080645 86.7205645,23.4024194 86.741129,14.3129032 C87.8104839,13.9427419 88.5508065,13.8604839 89.4762097,13.8604839 C93.3423387,13.8604839 95.5016129,18.3229839 95.5016129,23.9370968 C95.5221774,31.0935484 92.8487903,36.5225806 89.0237903,36.5225806 M93.116129,10.9403226 C90.6895161,10.9403226 88.7564516,11.5983871 86.741129,12.5854839 C86.7616935,6.86854839 86.8233871,1.89193548 86.9673387,-2.84217094e-14 L75.225,2.26209677 L75.225,3.3108871 L76.3766129,3.45483871 C78.0217742,3.68104839 78.6387097,4.64758065 78.8443548,6.82741935 C79.2145161,11.0225806 79.1528226,33.4995968 78.8443548,37.1189516 C82.0112903,37.8181452 85.425,38.3733871 88.8592742,38.3733871 C98.175,38.3733871 103.789113,32.6153226 103.789113,23.4846774 C103.768548,16.2048387 99.2237903,10.9403226 93.116129,10.9403226" id="Fill-1"></path>
                <path d="M30.8879032,0.822580645 L0,0.822580645 L0,2.30322581 L1.64516129,2.52943548 C4.01008065,2.87903226 4.91491935,4.3391129 5.18225806,7.65 C5.71693548,14.025 5.63467742,25.4177419 5.18225806,30.9084677 C4.91491935,34.2399194 3.98951613,35.7 1.64516129,36.0290323 L0,36.2552419 L0,37.7358871 L19.8447581,37.7358871 L19.8447581,36.2552419 L17.7677419,36.0290323 C15.4028226,35.6794355 14.4979839,34.2193548 14.2306452,30.9084677 C14.0455645,28.646371 13.9221774,24.821371 13.8810484,20.3383065 L17.9733871,20.4616935 C20.7084677,20.5439516 21.8395161,22.5798387 22.4975806,25.5822581 L24.0193548,25.5822581 L24.0193548,13.0995968 L22.4975806,13.0995968 C21.8395161,16.1020161 20.6879032,18.1173387 17.9733871,18.2201613 L13.8604839,18.3435484 C13.8399194,12.4415323 13.9427419,6.76572581 14.2306452,3.35201613 L20.3383065,3.35201613 C25.0887097,3.35201613 27.6387097,6.375 29.2427419,11.7217742 L31.0729839,11.2076613 L30.8879032,0.822580645 Z" id="Fill-3"></path>
                <path d="M40.4709677,12.3592742 C36.5842742,12.3592742 35.4943548,17.6032258 35.4943548,24.5334677 C35.4943548,31.2580645 37.2217742,36.7076613 40.8205645,36.7076613 C44.7072581,36.7076613 45.7971774,31.4637097 45.7971774,24.5334677 C45.7971774,17.7883065 44.0697581,12.3592742 40.4709677,12.3592742 M40.9439516,10.6524194 C49.725,10.6524194 54.0846774,16.5955645 54.0846774,24.4512097 C54.0846774,32.1217742 49.1697581,38.3939516 40.3681452,38.3939516 C31.5870968,38.3939516 27.2274194,32.4508065 27.2274194,24.5951613 C27.2274194,16.9245968 32.1423387,10.6524194 40.9439516,10.6524194" id="Fill-5"></path>
                <path d="M114.1125,21.4076613 L122.358871,21.2225806 C122.4,17.5826613 121.824194,12.3592742 118.862903,12.3592742 C115.860484,12.3798387 114.194758,17.3153226 114.1125,21.4076613 M105.927823,24.7596774 C105.927823,17.5004032 110.51371,10.6524194 119.562097,10.6524194 C126.924194,10.6524194 130.440726,16.1225806 130.481855,23.2584677 L114.050806,23.2584677 C113.865726,29.7362903 117.156048,34.5072581 123.428226,34.5072581 C126.183871,34.5072581 127.685081,33.828629 129.350806,32.553629 L130.132258,33.4790323 C128.302016,36.0084677 124.497581,38.3939516 119.459274,38.3939516 C111.541935,38.3939516 105.948387,32.7798387 105.927823,24.7596774" id="Fill-7"></path>
                <path d="M151.293145,12.071371 C149.339516,11.1870968 146.419355,10.6318548 143.355242,10.6318548 C136.754032,10.6318548 132.743952,14.4979839 132.743952,19.0221774 C132.743952,23.6697581 135.746371,25.5 139.920968,26.9806452 C144.404032,28.5846774 145.57621,29.8391129 145.57621,31.8955645 C145.57621,34.0342742 144.013306,36.0290323 141.195968,36.0290323 C137.885081,36.0290323 135.37621,34.0754032 133.46371,28.7080645 L132.127016,29.0576613 L132.353226,36.7487903 C134.533065,37.6330645 138.275806,38.3733871 141.627823,38.3733871 C148.619758,38.3733871 152.876613,34.9596774 152.876613,29.4072581 C152.876613,25.6850806 151.066935,23.6491935 146.460484,21.8600806 C141.504435,19.9475806 139.777016,18.7342742 139.777016,16.4310484 C139.777016,14.1072581 141.29879,12.5237903 143.4375,12.5237903 C146.625,12.5237903 148.804839,14.4979839 150.22379,19.1455645 L151.560484,18.7959677 L151.293145,12.071371 Z" id="Fill-9"></path>
                <path d="M76.9935484,11.3927419 C74.0322581,9.62419355 68.6237903,10.4467742 65.8887097,16.7600806 L66.0120968,10.6318548 L54.3108871,12.8939516 L54.3108871,13.9427419 L55.4625,14.0866935 C57.1076613,14.3129032 57.7245968,15.2794355 57.9302419,17.4592742 C58.3004032,21.6544355 58.2387097,29.1399194 57.9302419,32.7387097 C57.7451613,34.9185484 57.1076613,35.8850806 55.4625,36.1112903 L54.3108871,36.2552419 L54.3108871,37.7358871 L70.6185484,37.7358871 L70.6185484,36.2552419 L68.5004032,36.1112903 C66.8552419,35.8850806 66.2383065,34.9185484 66.0326613,32.7387097 C65.7447581,29.4278226 65.6830645,22.8471774 65.9504032,18.5491935 C66.7318548,17.253629 70.5568548,16.2048387 74.1145161,18.5903226 L76.9935484,11.3927419 Z" id="Fill-11"></path>
            </g>
        </g>
    </g>
</svg>